<svg xmlns="http://www.w3.org/2000/svg" xmlns:xlink="http://www.w3.org/1999/xlink" viewBox="0 0 236.54 159.52"><defs><style>.cls-1,.cls-31{fill:#fff;}.cls-1,.cls-10,.cls-15,.cls-32{fill-rule:evenodd;}.cls-2{fill:url(#Degradado_sin_nombre_4);}.cls-3{fill:#fdfbfb;}.cls-14,.cls-19,.cls-30,.cls-4,.cls-5,.cls-7,.cls-9{fill:none;}.cls-19,.cls-4{stroke:#302c31;}.cls-4{stroke-width:10px;}.cls-5{stroke:#ded6dc;stroke-width:5px;}.cls-15,.cls-6{fill:#302c31;}.cls-7{stroke:#c2bebd;stroke-width:3px;}.cls-8{fill:url(#Degradado_sin_nombre_3);}.cls-9{stroke:#040006;stroke-linecap:round;}.cls-19,.cls-30,.cls-9{stroke-width:2px;}.cls-10,.cls-27{fill:#eee4e2;}.cls-11{mask:url(#mask);}.cls-12{fill:#e1e1e1;}.cls-13{fill:#ede2e3;}.cls-14{stroke:#565656;}.cls-16{mask:url(#mask-2);}.cls-17{fill:#b0a8af;}.cls-18{mask:url(#mask-3);}.cls-20{fill:#545159;}.cls-21{fill:#35313d;}.cls-22{fill:#b6444f;}.cls-23{fill:url(#Degradado_sin_nombre_3-2);}.cls-24{fill:#2f2a34;}.cls-25{fill:#080509;}.cls-26{fill:#862f44;}.cls-28{fill:#791f25;}.cls-29{fill:#2a1d26;}.cls-30{stroke:#373a3c;}.cls-32{fill:#f3eae9;}.cls-33{fill:#e2dedd;}.cls-34{fill:#a299a6;}.cls-35{fill:#fdfdfd;}.cls-36{fill:#dbdbdb;}</style><linearGradient id="Degradado_sin_nombre_4" x1="-130.76" y1="225.81" x2="-120.14" y2="226.1" gradientTransform="matrix(0.93, -0.37, -0.38, -0.92, 284.85, 217.19)" gradientUnits="userSpaceOnUse"><stop offset="0.15" stop-color="#34373a"/><stop offset="1" stop-color="#5f5f5f"/></linearGradient><radialGradient id="Degradado_sin_nombre_3" cx="4.33" cy="548.18" r="1" gradientTransform="matrix(0, 8.21, 8.4, 0, -4410.15, 68.63)" gradientUnits="userSpaceOnUse"><stop offset="0" stop-color="#727272"/><stop offset="1" stop-color="#555"/></radialGradient><mask id="mask" x="141.7" y="43.3" width="29.27" height="32.58" maskUnits="userSpaceOnUse"><g id="path-12-inside-1_0_1" data-name="path-12-inside-1 0 1"><path class="cls-1" d="M160.91,44.62l-5.24,2.32L163,62.64,143,71.46l1.44,3.11,19.92-8.81h0l5.24-2.32Z"/></g></mask><mask id="mask-2" x="27.08" y="99.56" width="28.27" height="29.03" maskUnits="userSpaceOnUse"><g id="path-17-inside-2_0_1" data-name="path-17-inside-2 0 1"><path class="cls-1" d="M43.92,105.93l-2.7-4.45-2.71,4.45-4.86-2,.48,5.15L29,110.18l3.49,3.89L29,118l5.16,1.14-.48,5.16,4.86-2.05,2.71,4.45,2.7-4.45,4.87,2.05-.49-5.16L53.46,118,50,114.07l3.49-3.89L48.3,109l.49-5.15ZM41.5,121.19a6.85,6.85,0,1,0-7-6.85A6.93,6.93,0,0,0,41.5,121.19Z"/></g></mask><mask id="mask-3" x="26.38" y="100.05" width="29.68" height="28.04" maskUnits="userSpaceOnUse"><g id="path-19-inside-3_0_1" data-name="path-19-inside-3 0 1"><path class="cls-1" d="M46,106.89l-1.44-5-3.79,3.61-4.16-3.2-.89,5.1-5.29-.21,2.34,4.64-4.4,2.88L33,117.14,31.21,122l5.24-.74,1.44,5,3.79-3.61,4.15,3.21.9-5.11,5.29.21-2.34-4.64,4.4-2.88L49.39,111l1.84-4.85ZM39.6,121a7,7,0,0,0,8.58-4.84,6.83,6.83,0,0,0-5-8.38,7,7,0,0,0-8.57,4.84A6.83,6.83,0,0,0,39.6,121Z"/></g></mask><radialGradient id="Degradado_sin_nombre_3-2" cx="-3.99" cy="569.51" r="1" gradientTransform="matrix(-5.08, 6.53, 6.68, 4.97, -3783.12, -2691.16)" xlink:href="#Degradado_sin_nombre_3"/></defs><title>Recurso 1</title><g id="Capa_2" data-name="Capa 2"><g id="Capa_1-2" data-name="Capa 1"><polygon class="cls-2" points="59.84 18.05 65.03 15.99 97.52 94.16 92.33 96.22 59.84 18.05"/><path class="cls-3" d="M144.75,10.85l8.19-3.62,43.54,94a4.39,4.39,0,0,1-2.22,5.87h0a4.56,4.56,0,0,1-6-2.25Z"/><path class="cls-4" d="M231.54,104c0,20.56-17.09,37.43-38.39,37.43S154.76,124.57,154.76,104s17.08-37.42,38.39-37.42S231.54,83.45,231.54,104Z"/><path class="cls-5" d="M229,104c0,19.28-16,35-35.85,35s-35.85-15.72-35.85-35,16-35,35.85-35S229,84.73,229,104Z"/><path class="cls-6" d="M189.47,69.12h8.4l-1.68,31.2h-5Z"/><path class="cls-6" d="M189.47,139.19h8.4L196.19,108h-5Z"/><path class="cls-6" d="M229.22,108.53v-8.21L197.31,102v4.93Z"/><path class="cls-6" d="M157,108.53v-8.21L188.91,102v4.93Z"/><path class="cls-7" d="M227.76,104c0,18.64-15.47,33.81-34.61,33.81S158.54,122.65,158.54,104,174,70.2,193.15,70.2,227.76,85.37,227.76,104Z"/><ellipse class="cls-8" cx="193.39" cy="104.15" rx="8.4" ry="8.21"/><path class="cls-9" d="M206.72,137.68l3.75-1.49"/><path class="cls-10" d="M160.91,44.62l-5.24,2.32L163,62.64,143,71.46l1.44,3.11,19.92-8.81h0l5.24-2.32Z"/><g class="cls-11"><path class="cls-12" d="M155.67,46.94l-.4-.92-.93.41.42.93Zm5.24-2.32.91-.42-.41-.9-.9.4Zm2,18,.4.92.93-.41-.43-.93ZM143,71.46l-.4-.91-.93.41.42.92Zm1.44,3.11-.91.42.42.9.9-.4Zm19.92-8.81.91-.42-.42-.9-.9.4Zm0,0-.91.41.41.9.9-.4Zm5.24-2.32.4.91.93-.41-.43-.92ZM156.08,47.85l5.24-2.32-.81-1.83L155.27,46Zm7.77,14.37-7.27-15.7-1.82.84L162,63.06ZM143.44,72.38l19.91-8.82-.81-1.83-19.91,8.82Zm1.94,1.77L143.94,71l-1.82.84L143.56,75ZM164,64.84l-19.91,8.82.81,1.83,19.91-8.82Zm1.32.5h0l-1.82.83h0Zm3.92-2.82L164,64.84l.81,1.83L170,64.35ZM160,45l8.72,18.82,1.81-.84L161.82,44.2Z"/></g><circle class="cls-13" cx="100.04" cy="115.02" r="9.5"/><path class="cls-14" d="M50.54,128.52c1.78-2.57,8.28-7.77,20-8"/><path class="cls-15" d="M51.22,126.41a2.55,2.55,0,0,0,.59-1.6c0-2-2.51-3.56-5.6-3.56s-5.6,1.6-5.6,3.56,2.51,3.56,5.6,3.56l.63,0A2.5,2.5,0,0,0,49.29,130a2.37,2.37,0,0,0,2.52-2.19A2,2,0,0,0,51.22,126.41Z"/><g class="cls-16"><path class="cls-17" d="M41.22,101.48l.85-.52-.85-1.4-.86,1.4Zm2.7,4.45-.85.52.45.73.79-.33Zm-5.41,0-.38.92.79.33.45-.73Zm-4.86-2.05L34,103l-1.54-.64.15,1.66Zm.48,5.16.22,1,.86-.19-.08-.88ZM29,110.18l-.21-1-1.68.37,1.15,1.28Zm3.49,3.89.75.67.6-.67-.6-.67ZM29,118l-.74-.67-1.15,1.28,1.68.37Zm5.16,1.14,1,.1.08-.88-.86-.19Zm-.48,5.16-1-.1-.15,1.67,1.54-.65Zm4.86-2.05.86-.52-.45-.73-.79.33Zm2.71,4.45-.86.52.86,1.41.85-1.41Zm2.7-4.45.39-.92-.79-.33-.45.73Zm4.87,2.05-.39.92,1.54.65-.16-1.67Zm-.49-5.16-.21-1-.87.19.09.88ZM53.47,118l.21,1,1.67-.37-1.14-1.28ZM50,114.07l-.74-.67-.6.67.6.67Zm3.5-3.89.74.67,1.14-1.28-1.67-.37ZM48.3,109l-1-.1-.09.88.87.19Zm.49-5.16,1,.1.16-1.66L48.4,103ZM40.36,102l2.71,4.45,1.71-1L42.07,101Zm-1,4.45,2.7-4.45-1.71-1-2.7,4.45Zm-6.11-1.64,4.87,2L38.9,105,34,103Zm1.87,4.13-.48-5.15-2,.19.49,5.15Zm-5.94,2.22L34.35,110l-.43-2-5.16,1.14Zm4,2.24-3.49-3.89-1.49,1.34,3.49,3.89Zm-3.49,5.23,3.49-3.89-1.49-1.34-3.49,3.89Zm4.63-.5L29.19,117l-.43,2,5.16,1.14Zm.3,6.22.48-5.15-2-.19-.49,5.15Zm3.48-3.06-4.87,2,.78,1.84,4.86-2Zm3.94,4.85-2.7-4.45-1.71,1,2.7,4.45Zm1-4.45-2.71,4.45,1.71,1,2.71-4.45Zm6.1,1.65-4.86-2-.77,1.85,4.86,2Zm-1.86-4.14.48,5.15,2-.19L49.3,119ZM53.25,117l-5.16,1.14.43,2,5.16-1.14Zm-4-2.25,3.49,3.89,1.49-1.34-3.49-3.89Zm3.49-5.23-3.49,3.89,1.49,1.34,3.49-3.89Zm-4.63.5,5.16,1.15.43-2-5.16-1.14Zm-.3-6.22-.48,5.15,2,.19.48-5.15Zm-3.48,3.06,4.86-2L48.4,103,43.54,105Zm3.19,7.49a5.93,5.93,0,0,1-6,5.85v2a7.93,7.93,0,0,0,8-7.85Zm-6-5.84a5.93,5.93,0,0,1,6,5.84h2a7.93,7.93,0,0,0-8-7.84Zm-6,5.84a5.92,5.92,0,0,1,6-5.84v-2a7.92,7.92,0,0,0-8,7.84Zm6,5.85a5.92,5.92,0,0,1-6-5.85h-2a7.92,7.92,0,0,0,8,7.85Z"/></g><g class="cls-18"><path class="cls-17" d="M44.55,101.91l1-.28-.46-1.58-1.2,1.14Zm1.44,5-1,.28.24.83.86-.12Zm-5.23-1.37-.62.79.68.53.63-.6Zm-4.16-3.2.62-.79-1.31-1-.29,1.64Zm-.89,5.1-.05,1,.88,0,.16-.87Zm-5.29-.21,0-1-1.71-.07.76,1.52Zm2.34,4.65.55.83.75-.49-.4-.8Zm-4.4,2.87-.55-.83-1.43.94,1.51.78ZM33,117.14l.94.34.31-.82-.78-.41ZM31.21,122l-.94-.34-.59,1.57,1.66-.24Zm5.24-.74,1-.28-.23-.83-.86.12Zm1.44,5-1,.29.46,1.57,1.2-1.14Zm3.79-3.61.62-.79-.68-.52-.63.59Zm4.15,3.21-.62.79,1.32,1,.29-1.64Zm.9-5.11.05-1-.89,0-.15.87Zm5.29.21-.05,1,1.71.07-.76-1.52Zm-2.34-4.64-.55-.84-.75.5.4.79Zm4.4-2.88.54.83,1.44-.94-1.51-.77ZM49.39,111l-.94-.34-.31.83.79.4Zm1.84-4.85.93.34.59-1.57-1.66.24Zm-7.64-4,1.43,5,1.93-.56-1.43-5Zm-2.14,4,3.79-3.61-1.38-1.44-3.79,3.61ZM36,103.11l4.16,3.2,1.24-1.58-4.16-3.2Zm.72,4.47.89-5.1-2-.33-.9,5.11Zm-6.33.63,5.29.2.1-2-5.29-.2Zm3.29,3.19-2.34-4.64-1.8.91,2.34,4.64Zm-4.76,4.16,4.41-2.87L32.22,111l-4.41,2.88Zm4.61.69-4.68-2.41-.94,1.78L32.58,118Zm-1.36,6.09L34,117.48l-1.87-.68-1.84,4.85Zm4.17-2.08-5.24.75.26,2,5.24-.74ZM38.85,126l-1.44-5-1.92.56,1.43,5Zm2.14-4-3.79,3.62L38.58,127l3.79-3.61ZM46.45,125l-4.15-3.2-1.24,1.58,4.15,3.21Zm-.71-4.47-.89,5.1,2,.33.9-5.1Zm6.33-.63-5.29-.2-.1,2,5.29.2Zm-3.29-3.19,2.34,4.64,1.8-.91-2.35-4.64Zm4.75-4.16-4.4,2.87,1.09,1.67,4.4-2.88Zm-4.6-.69,4.68,2.41.94-1.77-4.69-2.41Zm1.36-6.08-1.84,4.85,1.88.69,1.83-4.86Zm-4.17,2.07,5.24-.75-.27-2-5.23.74Zm1.09,8a6,6,0,0,1-7.34,4.13L39.34,122a8,8,0,0,0,9.8-5.55ZM43,108.76a5.84,5.84,0,0,1,4.25,7.16l1.93.51a7.82,7.82,0,0,0-5.65-9.6Zm-7.34,4.13A6,6,0,0,1,43,108.76l.53-1.93a8,8,0,0,0-9.8,5.55Zm4.25,7.16a5.84,5.84,0,0,1-4.25-7.16l-1.93-.51a7.81,7.81,0,0,0,5.65,9.6Z"/></g><path class="cls-19" d="M70.54,131.52c4.52-1.55,12.34-4.6,15.28-4.39,3.68.26,14.15.52,14.72-3.61"/><path class="cls-20" d="M82.53,6.84C80.5,8.5,53.87,8.4,42.72,5.75c0,7.29,10.2,12.48,14.48,14,4.27.67,12.16-.22,17.22-3,6.08-3.32,10.62-4.17,12-7.48C87.38,6.87,85.57,6.84,82.53,6.84Z"/><path class="cls-21" d="M82.53,4.65c-2,1.66-30.06,2.66-41.21,0C41.32,12,52.92,16,57.2,17.58c4.27.67,12.16-.22,17.22-3,6.08-3.32,11.82-.66,13.18-4C88.59,8.18,85.57,4.65,82.53,4.65Z"/><path class="cls-22" d="M62,6.27c-1.68-.32-9.36.32-20.72-1.62,0,7.11,11.47,11.09,15.7,12.6C56.69,14.45,56.69,8.53,62,6.27Z"/><path class="cls-4" d="M73.86,136.77a38.91,38.91,0,0,1-53.72,7.11,36.92,36.92,0,0,1-7.32-52.52,38.91,38.91,0,0,1,53.72-7.11A36.93,36.93,0,0,1,73.86,136.77Z"/><path class="cls-5" d="M71.85,135.28a36.36,36.36,0,0,1-50.2,6.65,34.52,34.52,0,0,1-6.83-49.08A36.36,36.36,0,0,1,65,86.2,34.51,34.51,0,0,1,71.85,135.28Z"/><path class="cls-6" d="M62,84.12l6.68,5L48.05,112.93l-4-3Z"/><path class="cls-6" d="M19.14,139.24l6.68,5L43.3,119l-4-3Z"/><path class="cls-6" d="M68.8,138.69l5.08-6.54-26-17.25-3.05,3.92Z"/><path class="cls-6" d="M12.36,96.7l5.08-6.53,23.8,19.76-3.05,3.92Z"/><path class="cls-7" d="M70.87,134.55A35.12,35.12,0,0,1,22.39,141a33.33,33.33,0,0,1-6.59-47.4,35.12,35.12,0,0,1,48.48-6.43A33.33,33.33,0,0,1,70.87,134.55Z"/><ellipse class="cls-23" cx="43.44" cy="114.32" rx="8.4" ry="8.21"/><path class="cls-9" d="M60.67,146.29l3.46-2"/><path class="cls-24" d="M100.52,113.9a2.54,2.54,0,0,1-1.68,3.6h0a2.63,2.63,0,0,1-3.08-1.58L88.05,96.5A1.7,1.7,0,0,1,89,94.3h0a1.77,1.77,0,0,1,2.28.84Z"/><ellipse class="cls-24" cx="99.4" cy="116.94" rx="4.2" ry="4.11"/><rect class="cls-24" x="86.64" y="88.87" width="4.38" height="11.76" rx="2" transform="translate(-6.15 183.32) rotate(-89.85)"/><path class="cls-25" d="M94.7,95a2,2,0,0,1-2,2H91.34V92.56h1.36a2,2,0,0,1,2,2Z"/><path class="cls-19" d="M149.54,70.73c-4.39-2.42-14.51-5.82-19.88,0-6.72,7.28-25.76,17.79-29.4,16.71l-13.72-4"/><path class="cls-26" d="M150.18,11.39,157,8a1.39,1.39,0,0,1,1.91.69h0a1.56,1.56,0,0,1-.72,2l-6.77,3.39a1.39,1.39,0,0,1-1.92-.68h0A1.57,1.57,0,0,1,150.18,11.39Z"/><path class="cls-27" d="M141.12,15.89a.76.76,0,0,1,.09-1.23l14.45-8.79a1.34,1.34,0,0,1,1.94.6h0a1.49,1.49,0,0,1-.69,1.93L141.85,16a.69.69,0,0,1-.73-.06Z"/><path class="cls-27" d="M144.71,19.14l15.66-7.85a.57.57,0,0,1,.77.28h0a.63.63,0,0,1-.29.8l-15.66,7.85a.55.55,0,0,1-.76-.27h0A.62.62,0,0,1,144.71,19.14Z"/><path class="cls-28" d="M152.83.43l12,9.11a2.34,2.34,0,0,1,.53,3.13h0a2,2,0,0,1-2.95.49l-12-9.11a2.34,2.34,0,0,1-.52-3.13h0A2,2,0,0,1,152.83.43Z"/><path class="cls-29" d="M158.26,8.83l7.27,6.5a1.25,1.25,0,0,1,.15,1.69h0a1.08,1.08,0,0,1-1.59.13l-7.27-6.5A1.24,1.24,0,0,1,156.68,9h0A1.07,1.07,0,0,1,158.26,8.83Z"/><path class="cls-30" d="M159.86,12.52c-3.8,1.46-5,6.25-2.91,14"/><path class="cls-31" d="M43.31,123.2a9,9,0,0,1-9.19-9.07h0a9,9,0,0,1,9.09-8.9l56.1.65a8,8,0,0,1,7.91,8.1h0a8,8,0,0,1-7.82,7.91Z"/><path class="cls-32" d="M80.43,64.32a1.61,1.61,0,0,0-.89,2.11,1.73,1.73,0,0,0,.52.67h0l5.84,14,5.18-2.06L85.54,65.81l3.06-1.22a1.6,1.6,0,0,0,.89-2.11,1.67,1.67,0,0,0-2.15-.91Z"/><path class="cls-31" d="M77,75.49l12.57-5.56,18.32,39.57a6.73,6.73,0,0,1-3.39,9h0a7,7,0,0,1-9.17-3.45Z"/><polygon class="cls-33" points="82.44 75.7 116.3 63.33 123.17 75.56 89.3 87.93 82.44 75.7"/><polygon class="cls-31" points="77 75.49 116.23 61.17 123.09 73.4 83.87 87.72 77 75.49"/><polygon class="cls-33" points="115.92 63.47 163.07 46.26 169.94 58.49 122.79 75.7 115.92 63.47"/><polygon class="cls-31" points="116.1 61.22 163.07 44.07 169.94 56.3 122.97 73.45 116.1 61.22"/><path class="cls-34" d="M127,59.81l2.64-1a.55.55,0,0,1,.71.32h0a.53.53,0,0,1-.32.7l-2.64,1a.56.56,0,0,1-.71-.32h0A.55.55,0,0,1,127,59.81Z"/><path class="cls-34" d="M121.75,61.65l2.64-1a.56.56,0,0,1,.71.32h0a.54.54,0,0,1-.32.7l-2.64,1a.56.56,0,0,1-.71-.32h0A.53.53,0,0,1,121.75,61.65Z"/><path class="cls-34" d="M132.39,57.65l2.64-1a.55.55,0,0,1,.71.32h0a.53.53,0,0,1-.32.7l-2.64,1a.56.56,0,0,1-.71-.32h0A.55.55,0,0,1,132.39,57.65Z"/><path class="cls-34" d="M137.8,55.49l2.64-1a.55.55,0,0,1,.71.32h0a.54.54,0,0,1-.31.7l-2.64,1a.57.57,0,0,1-.72-.33h0A.55.55,0,0,1,137.8,55.49Z"/><path class="cls-24" d="M99.69,120.19a2.54,2.54,0,0,1,1.67-3.6h0a2.63,2.63,0,0,1,3.08,1.57l7.77,19.4a1.72,1.72,0,0,1-.92,2.21h0a1.78,1.78,0,0,1-2.29-.84Z"/><ellipse class="cls-24" cx="100.8" cy="117.15" rx="4.2" ry="4.11"/><rect class="cls-24" x="105.56" y="137.13" width="11.76" height="4.38" rx="2"/><path class="cls-25" d="M105.56,139.13a2,2,0,0,1,2-2h1.36v4.38h-1.36a2,2,0,0,1-2-2Z"/><ellipse class="cls-35" cx="44.54" cy="158.02" rx="36" ry="1.5"/><ellipse class="cls-36" cx="198.54" cy="148.02" rx="36" ry="1.5"/></g></g></svg>